<svg id="Layer_1" data-name="Layer 1" xmlns="http://www.w3.org/2000/svg" viewBox="0 0 92.67 122.88"><title>plastic-recycling-code-number-7</title><path d="M90.44,59.93,83.75,48.34l-8.62,5,6.7,11.6a6.55,6.55,0,0,1-5.64,9.81H52.13v-5l-17.23,10L52.13,89.6v-5H76.19A16.42,16.42,0,0,0,90.44,59.93ZM19.8,113.75a13.24,13.24,0,0,1-.5,3.77,8,8,0,0,1-1.56,2.91,6.64,6.64,0,0,1-2.5,1.84,8.24,8.24,0,0,1-3.26.61,7.25,7.25,0,0,1-5.77-2.43,7.91,7.91,0,0,1-1.57-2.87,12.47,12.47,0,0,1-.54-3.73v-3.46a13.54,13.54,0,0,1,.51-3.87,8.38,8.38,0,0,1,1.55-3,6.71,6.71,0,0,1,2.52-1.91A8.12,8.12,0,0,1,12,101a8,8,0,0,1,3.24.62,6.75,6.75,0,0,1,2.51,1.87,8.28,8.28,0,0,1,1.57,3,13.67,13.67,0,0,1,.53,3.85v3.46Zm-5.22-3.4a12.27,12.27,0,0,0-.19-2.27,4.76,4.76,0,0,0-.51-1.51,2.11,2.11,0,0,0-.78-.79,2.38,2.38,0,0,0-1.15-.26,2.46,2.46,0,0,0-1.14.25,2,2,0,0,0-.77.76A4.48,4.48,0,0,0,9.52,108a11.32,11.32,0,0,0-.21,2.17v3.6a11.51,11.51,0,0,0,.18,2.19,4.26,4.26,0,0,0,.52,1.42,2.12,2.12,0,0,0,.78.74,2.67,2.67,0,0,0,1.18.24,2.45,2.45,0,0,0,1.13-.24,1.81,1.81,0,0,0,.76-.72,3.83,3.83,0,0,0,.51-1.38,10.86,10.86,0,0,0,.2-2.13v-3.51Zm21.15-4.54H31.3V122.6H26.08V105.81H21.16v-4.55H36.29v4.55ZM53.91,122.6H49.28V114H44.39v8.64H39.18V101.26h5.21v8.18h4.89v-8.18h5.19V122.6Zm15.37-8.73H63.5v4.21H71v4.52H58.28V101.26H71v4.55H63.5v3.63h6.35v4.43Zm10.93,1.37H79.13v7.36H73.91V101.26H81a8.91,8.91,0,0,1,2.89.43A5.8,5.8,0,0,1,86.11,103a5.65,5.65,0,0,1,1.4,2.14,8.08,8.08,0,0,1,.45,2.79,7.92,7.92,0,0,1-.79,3.69,5.89,5.89,0,0,1-2,2.19l3.39,7.9v.88H83.24l-3-7.36Zm-1.08-4.55h1.74a2.1,2.1,0,0,0,.84-.15,1.34,1.34,0,0,0,.54-.43,2.34,2.34,0,0,0,.37-.76,4.29,4.29,0,0,0,.13-1.07,3.16,3.16,0,0,0-.47-1.93,1.6,1.6,0,0,0-1.34-.54H79.13v4.88ZM36.9,39.11H55.61v4.33a23.28,23.28,0,0,0-4.08,4.76,27.93,27.93,0,0,0-3.13,6.94,32.61,32.61,0,0,0-1.23,7H40.8a37,37,0,0,1,2.37-9.47,35.7,35.7,0,0,1,5.12-8.18H36.9V39.11ZM16.49,84.57h13.4V74.72H16.49a6.54,6.54,0,0,1-5.64-9.8L22.91,44l4.31,2.48V26.62L10,36.57l4.31,2.49L2.23,59.93A16.42,16.42,0,0,0,16.49,84.57ZM32.08,8.23,25.39,19.82l8.61,5,6.7-11.59a6.51,6.51,0,0,1,11.28,0L64,34.08,59.7,36.57l17.22,10V26.62l-4.29,2.49-12-20.88a16.46,16.46,0,0,0-28.51,0Z"/></svg>