<svg width="512" height="512" viewBox="0 0 512 512" fill="none" xmlns="http://www.w3.org/2000/svg">
<path d="M137.033 407.467C136.757 407.467 136.533 407.243 136.533 406.967V100.767C136.533 100.49 136.757 100.267 137.033 100.267H248.783C273.463 100.267 294.067 104.217 310.596 112.117C327.238 119.917 339.748 130.767 348.126 144.667C356.617 158.467 360.862 174.317 360.862 192.217C360.862 210.117 356.617 225.917 348.126 239.617C339.748 253.317 327.295 264.017 310.766 271.717C294.237 279.417 273.746 283.267 249.292 283.267H154.185C153.909 283.267 153.685 283.043 153.685 282.767V258.117C153.685 257.84 153.909 257.617 154.185 257.617H248.443C266.557 257.617 281.614 254.967 293.614 249.667C305.728 244.367 314.728 236.817 320.615 227.017C326.616 217.217 329.616 205.617 329.616 192.217C329.616 178.817 326.616 167.117 320.615 157.117C314.615 147.017 305.558 139.217 293.445 133.717C281.444 128.217 266.274 125.467 247.934 125.467H168.789C168.513 125.467 168.289 125.69 168.289 125.967V406.967C168.289 407.243 168.065 407.467 167.789 407.467H137.033ZM289.722 268.807C289.824 268.846 289.91 268.916 289.968 269.008L409.116 457.9C409.326 458.233 409.087 458.667 408.693 458.667H373.208C373.029 458.667 372.864 458.571 372.775 458.416L256.701 257.215C256.466 256.808 256.872 256.331 257.312 256.498L289.722 268.807Z" fill="white"/>
<path d="M256 477.867C133.466 477.867 34.1333 378.535 34.1333 256H0C0 397.384 114.615 512 256 512V477.867ZM477.867 256C477.867 378.535 378.535 477.867 256 477.867V512C397.384 512 512 397.384 512 256H477.867ZM256 34.1333C378.535 34.1333 477.867 133.466 477.867 256H512C512 114.615 397.384 0 256 0V34.1333ZM256 0C114.615 0 0 114.615 0 256H34.1333C34.1333 133.466 133.466 34.1333 256 34.1333V0Z" fill="white"/>
</svg>
