<svg width="512" height="512" viewBox="0 0 512 512" fill="none" xmlns="http://www.w3.org/2000/svg">
<circle cx="256" cy="256" r="256" fill="#0A1022"/>
<path d="M265.711 244.445C283.94 244.445 298.328 240.799 308.875 233.508C319.552 226.216 324.891 213.065 324.891 194.055C324.891 173.612 317.469 159.68 302.625 152.258C294.682 148.352 284.07 146.398 270.789 146.398H175.867V244.445H265.711ZM137 113H269.812C291.688 113 309.721 116.19 323.914 122.57C350.867 134.81 364.344 157.401 364.344 190.344C364.344 207.531 360.763 221.594 353.602 232.531C346.57 243.469 336.674 252.258 323.914 258.898C335.112 263.456 343.51 269.445 349.109 276.867C354.839 284.289 358.029 296.333 358.68 313L360.047 351.477C360.438 362.414 361.349 370.552 362.781 375.891C365.125 385.005 369.292 390.865 375.281 393.469V399.914H327.625C326.323 397.44 325.281 394.25 324.5 390.344C323.719 386.438 323.068 378.885 322.547 367.688L320.203 319.836C319.292 301.086 312.326 288.521 299.305 282.141C291.883 278.625 280.229 276.867 264.344 276.867H175.867V399.914H137V113Z" fill="white"/>
</svg>
